<!DOCTYPE svg PUBLIC "-//W3C//DTD SVG 1.1//EN" "http://www.w3.org/Graphics/SVG/1.1/DTD/svg11.dtd">
<svg fill="#FFDB6E" version="1.1" id="SVGRepoEditor" xmlns="http://www.w3.org/2000/svg" xmlns:xlink="http://www.w3.org/1999/xlink" viewBox="0 0 491.52 491.52" xml:space="preserve" width="161px" height="161px" stroke="#FFDB6E" stroke-width="0">
<g id="SVGRepo_bgCarrier" stroke-width="0"/> <path d="M399.36,314.095v-54.75l-35.845-5.975c-2.59-9.15-6.25-17.955-10.93-26.305l21.145-29.6l-38.715-38.715l-29.6,21.145 c-8.35-4.68-17.155-8.34-26.305-10.93l-5.975-35.845h-54.75l-5.975,35.845c-9.15,2.59-17.955,6.25-26.305,10.93l-29.6-21.145 l-38.715,38.715l21.145,29.6c-4.68,8.35-8.34,17.155-10.93,26.305l-35.845,5.975v54.75l35.845,5.97 c2.59,9.155,6.25,17.96,10.93,26.31l-21.145,29.6l38.715,38.715l29.6-21.145c8.35,4.685,17.16,8.34,26.305,10.93l5.975,35.845 h54.75l5.975-35.845c9.145-2.59,17.955-6.245,26.305-10.93l29.6,21.145l38.715-38.715l-21.145-29.6 c4.68-8.35,8.34-17.155,10.93-26.31L399.36,314.095z M346.98,373.765l-14.175,14.175l-26.56-18.97l-5.83,3.715 c-10.07,6.41-21.01,10.955-32.52,13.51l-6.75,1.495l-5.36,32.15h-20.05l-5.36-32.15l-6.75-1.495 c-11.51-2.555-22.45-7.1-32.52-13.51l-5.83-3.715l-26.56,18.97l-14.175-14.175l18.975-26.565l-3.715-5.83 c-6.415-10.06-10.96-21.005-13.51-32.52l-1.5-6.75l-32.15-5.355v-20.05l32.15-5.36l1.495-6.75 c2.555-11.515,7.1-22.455,13.515-32.515l3.715-5.83l-18.975-26.565l14.175-14.175l26.565,18.975l5.83-3.715 c10.06-6.415,21-10.96,32.515-13.515l6.75-1.495l5.36-32.15h20.05l5.36,32.15l6.75,1.495c11.515,2.555,22.455,7.1,32.515,13.515 l5.83,3.715l26.565-18.975l14.175,14.175l-18.975,26.565l3.715,5.83c6.415,10.06,10.96,21,13.515,32.515l1.495,6.75l32.15,5.36 v20.05l-32.15,5.355l-1.5,6.75c-2.55,11.515-7.095,22.46-13.51,32.52l-3.715,5.83L346.98,373.765z"/> <path d="M245.76,225.28c-33.88,0-61.44,27.56-61.44,61.44c0,33.88,27.56,61.44,61.44,61.44s61.44-27.56,61.44-61.44 C307.2,252.84,279.64,225.28,245.76,225.28z M245.76,327.68c-22.585,0-40.96-18.375-40.96-40.96 c0-22.585,18.375-40.96,40.96-40.96s40.96,18.375,40.96,40.96C286.72,309.305,268.345,327.68,245.76,327.68z"/> <path d="M0,0v491.52h491.52V0H0z M471.04,471.04H20.48V102.4h450.56V471.04z M471.04,81.92H20.48V20.48h450.56V81.92z"/> <rect x="430.08" y="40.96" width="20.48" height="20.48"/> <rect x="389.12" y="40.96" width="20.48" height="20.48"/> <rect x="348.16" y="40.96" width="20.48" height="20.48"/> <rect x="51.2" y="40.96" width="245.76" height="20.48"/> </svg>